<?xml version="1.0" encoding="UTF-8" standalone="no"?>
<!-- Generator: Adobe Illustrator 16.0.4, SVG Export Plug-In . SVG Version: 6.00 Build 0)  -->

<svg
   version="1.1"
   id="_x35_2"
   x="0px"
   y="0px"
   width="40px"
   height="40px"
   viewBox="0 0 40 40"
   enable-background="new 0 0 40 40"
   xml:space="preserve"
   sodipodi:docname="102.svg"
   inkscape:version="1.3 (0e150ed6c4, 2023-07-21)"
   xmlns:inkscape="http://www.inkscape.org/namespaces/inkscape"
   xmlns:sodipodi="http://sodipodi.sourceforge.net/DTD/sodipodi-0.dtd"
   xmlns="http://www.w3.org/2000/svg"
   xmlns:svg="http://www.w3.org/2000/svg"><defs
   id="defs4" /><sodipodi:namedview
   id="namedview4"
   pagecolor="#ffffff"
   bordercolor="#000000"
   borderopacity="0.25"
   inkscape:showpageshadow="2"
   inkscape:pageopacity="0.0"
   inkscape:pagecheckerboard="0"
   inkscape:deskcolor="#d1d1d1"
   inkscape:zoom="20.95"
   inkscape:cx="19.976134"
   inkscape:cy="20"
   inkscape:window-width="1920"
   inkscape:window-height="1094"
   inkscape:window-x="-9"
   inkscape:window-y="-9"
   inkscape:window-maximized="1"
   inkscape:current-layer="_x35_2" />&#10;<path
   fill="#000000"
   d="M19.064,1c0.92,2.022,1.445,4.26,1.445,6.624c0,7.624-5.338,13.997-12.499,15.665  c2.374,2.312,5.621,3.74,9.207,3.74c7.273,0,13.17-5.859,13.17-13.086C30.387,7.34,25.459,1.894,19.064,1z"
   id="path1" />&#10;<linearGradient
   id="SVGID_1_"
   gradientUnits="userSpaceOnUse"
   x1="38.6426"
   y1="-33.6401"
   x2="38.6426"
   y2="-32.6318"
   gradientTransform="matrix(27.28 0 0 -16.564 -1027.9056 -519.2673)">&#10;	<stop
   offset="0"
   style="stop-color:#CBCBCB"
   id="stop1" />&#10;	<stop
   offset="0.4852"
   style="stop-color:#D8D8D8"
   id="stop2" />&#10;	<stop
   offset="1"
   style="stop-color:#E1E1E1"
   id="stop3" />&#10;</linearGradient>&#10;<path
   fill="url(#SVGID_1_)"
   d="M34.209,24.197c-0.626,0-1.224,0.102-1.788,0.284c-1.523-1.938-3.881-3.189-6.532-3.189  c-2.524,0-4.785,1.134-6.309,2.915c-0.071-0.002-0.138-0.01-0.209-0.01c-3.795,0-6.87,2.923-6.87,6.529  c0,3.607,3.075,6.531,6.87,6.531c0.825,0,1.614-0.146,2.346-0.398c1.228,0.717,2.648,1.133,4.172,1.133  c2.391,0,4.541-1.02,6.062-2.64c0.693,0.298,1.457,0.462,2.261,0.462c3.201,0,5.789-2.6,5.789-5.808  C39.998,26.796,37.408,24.197,34.209,24.197z"
   id="path3"
   style="fill:#ffffff;fill-opacity:1;stroke:#000000;stroke-opacity:1" />&#10;<path
   opacity="0.4"
   fill="#000000"
   enable-background="new    "
   d="M19.064,1c0.92,2.022,1.445,4.26,1.445,6.624  c0,7.624-5.338,13.997-12.499,15.665c2.374,2.312,5.621,3.74,9.207,3.74c7.273,0,13.17-5.859,13.17-13.086  C30.387,7.34,25.459,1.894,19.064,1z"
   id="path4" />&#10;</svg>
