<?xml version="1.0" encoding="utf-8"?>
<!-- Generator: Adobe Illustrator 16.0.4, SVG Export Plug-In . SVG Version: 6.00 Build 0)  -->
<!DOCTYPE svg PUBLIC "-//W3C//DTD SVG 1.1//EN" "http://www.w3.org/Graphics/SVG/1.1/DTD/svg11.dtd">
<svg version="1.1" id="_x37_6_1_" xmlns="http://www.w3.org/2000/svg" xmlns:xlink="http://www.w3.org/1999/xlink" x="0px" y="0px"
	 width="40px" height="40px" viewBox="0 0 40 40" enable-background="new 0 0 40 40" xml:space="preserve">
<path fill="#000000" d="M19.064,13.971c0.92,2.021,1.445,4.26,1.445,6.624c0,7.624-5.338,13.997-12.499,15.665
	c2.374,2.312,5.621,3.74,9.207,3.74c7.273,0,13.17-5.859,13.17-13.086C30.387,20.311,25.459,14.865,19.064,13.971z"/>
<linearGradient id="SVGID_1_" gradientUnits="userSpaceOnUse" x1="21" y1="40.7295" x2="21" y2="35.4717" gradientTransform="matrix(1 0 0 -1 0 55.7422)">
	<stop  offset="0" style="stop-color:#CBCBCB"/>
	<stop  offset="0.175" style="stop-color:#D8D8D8"/>
	<stop  offset="1" style="stop-color:#EBEBEB"/>
</linearGradient>
<path fill="url(#SVGID_1_)" d="M32.358,20.259c-2.361,0-16.431-1.521-26.358-2.627v-1.257c9.473,0.808,22.77,1.884,26.358,1.884
	c1.796,0,3.258-1.462,3.258-3.259C36.758,17.881,35.261,20.259,32.358,20.259z"/>
<linearGradient id="SVGID_2_" gradientUnits="userSpaceOnUse" x1="19" y1="45.7295" x2="19" y2="40.4717" gradientTransform="matrix(1 0 0 -1 0 55.7422)">
	<stop  offset="0" style="stop-color:#CBCBCB"/>
	<stop  offset="0.175" style="stop-color:#D8D8D8"/>
	<stop  offset="1" style="stop-color:#EBEBEB"/>
</linearGradient>
<path fill="url(#SVGID_2_)" d="M30.358,15.259c-2.361,0-16.431-1.521-26.358-2.627v-1.257c9.473,0.808,22.77,1.884,26.358,1.884
	c1.796,0,3.258-1.462,3.258-3.259C34.758,12.881,33.261,15.259,30.358,15.259z"/>
<linearGradient id="SVGID_3_" gradientUnits="userSpaceOnUse" x1="17" y1="50.7295" x2="17" y2="45.4717" gradientTransform="matrix(1 0 0 -1 0 55.7422)">
	<stop  offset="0" style="stop-color:#CBCBCB"/>
	<stop  offset="0.175" style="stop-color:#D8D8D8"/>
	<stop  offset="1" style="stop-color:#EBEBEB"/>
</linearGradient>
<path fill="url(#SVGID_3_)" d="M28.358,10.259c-2.361,0-16.431-1.521-26.358-2.627V6.375c9.473,0.808,22.77,1.884,26.358,1.884
	c1.796,0,3.258-1.462,3.258-3.259C32.758,7.881,31.261,10.259,28.358,10.259z"/>
<linearGradient id="SVGID_4_" gradientUnits="userSpaceOnUse" x1="15" y1="55.7295" x2="15" y2="50.4717" gradientTransform="matrix(1 0 0 -1 0 55.7422)">
	<stop  offset="0" style="stop-color:#CBCBCB"/>
	<stop  offset="0.175" style="stop-color:#D8D8D8"/>
	<stop  offset="1" style="stop-color:#EBEBEB"/>
</linearGradient>
<path fill="url(#SVGID_4_)" d="M26.358,5.259C23.997,5.259,9.928,3.738,0,2.632V1.375c9.473,0.808,22.77,1.884,26.358,1.884
	c1.796,0,3.258-1.462,3.258-3.259C30.758,2.881,29.261,5.259,26.358,5.259z"/>
<path opacity="0.4" fill="#000000" enable-background="new    " d="M19.064,13.971c0.92,2.021,1.445,4.26,1.445,6.624
	c0,7.624-5.338,13.997-12.499,15.665c2.374,2.312,5.621,3.74,9.207,3.74c7.273,0,13.17-5.859,13.17-13.086
	C30.387,20.311,25.459,14.865,19.064,13.971z"/>
</svg>
