<?xml version="1.0" encoding="utf-8"?>
<!-- Generator: Adobe Illustrator 16.0.4, SVG Export Plug-In . SVG Version: 6.00 Build 0)  -->
<!DOCTYPE svg PUBLIC "-//W3C//DTD SVG 1.1//EN" "http://www.w3.org/Graphics/SVG/1.1/DTD/svg11.dtd">
<svg version="1.1" id="_x37_7" xmlns="http://www.w3.org/2000/svg" xmlns:xlink="http://www.w3.org/1999/xlink" x="0px" y="0px"
	 width="40px" height="40px" viewBox="0 0 40 40" enable-background="new 0 0 40 40" xml:space="preserve">
<path fill="#000000" d="M19.064,7c0.92,2.022,1.445,4.26,1.445,6.624c0,7.624-5.338,13.997-12.499,15.665
	c2.374,2.312,5.621,3.74,9.207,3.74c7.273,0,13.17-5.859,13.17-13.086C30.387,13.34,25.459,7.894,19.064,7z"/>
<linearGradient id="SVGID_1_" gradientUnits="userSpaceOnUse" x1="18.9995" y1="40" x2="18.9995" y2="23">
	<stop  offset="0" style="stop-color:#CBCBCB"/>
	<stop  offset="0.4852" style="stop-color:#D8D8D8"/>
	<stop  offset="1" style="stop-color:#E1E1E1"/>
</linearGradient>
<path fill-rule="evenodd" clip-rule="evenodd" fill="url(#SVGID_1_)" d="M0.999,25c-0.617,0.002-1-0.396-0.999-1.012
	C0,23.373,0.383,23.001,0.999,23h36c0.616,0,1,0.373,1,0.988c0,0.616-0.384,1.012-1,1.012H0.999z M0.999,28
	c-0.617,0.002-1-0.396-0.999-1.012C0,26.373,0.383,26.001,0.999,26h36c0.616,0,1,0.373,1,0.988c0,0.616-0.384,1.012-1,1.012H0.999z
	 M0.999,31c-0.617,0.002-1-0.396-0.999-1.012C0,29.373,0.383,29.001,0.999,29h36c0.616,0,1,0.373,1,0.988
	c0,0.616-0.384,1.012-1,1.012H0.999z M0.999,34c-0.617,0.002-1-0.396-0.999-1.012C0,32.373,0.383,32.001,0.999,32h36
	c0.616,0,1,0.373,1,0.988c0,0.616-0.384,1.012-1,1.012H0.999z M0.999,37c-0.617,0.002-1-0.396-0.999-1.012
	C0,35.373,0.383,35.001,0.999,35h36c0.616,0,1,0.373,1,0.988c0,0.616-0.384,1.012-1,1.012H0.999z M0.999,40
	c-0.617,0.002-1-0.396-0.999-1.012C0,38.373,0.383,38.001,0.999,38h36c0.616,0,1,0.373,1,0.988c0,0.616-0.384,1.012-1,1.012H0.999z"
	/>
<path opacity="0.4" fill="#000000" enable-background="new    " d="M19.064,7c0.92,2.022,1.445,4.26,1.445,6.624
	c0,7.624-5.338,13.997-12.499,15.665c2.374,2.312,5.621,3.74,9.207,3.74c7.273,0,13.17-5.859,13.17-13.086
	C30.387,13.34,25.459,7.894,19.064,7z"/>
</svg>
