<?xml version="1.0" encoding="UTF-8" standalone="no"?>
<!-- Generator: Adobe Illustrator 16.0.4, SVG Export Plug-In . SVG Version: 6.00 Build 0)  -->

<svg
   version="1.1"
   id="_x38_3"
   x="0px"
   y="0px"
   width="40px"
   height="40px"
   viewBox="0 0 40 40"
   enable-background="new 0 0 40 40"
   xml:space="preserve"
   sodipodi:docname="133.svg"
   inkscape:version="1.3 (0e150ed6c4, 2023-07-21)"
   xmlns:inkscape="http://www.inkscape.org/namespaces/inkscape"
   xmlns:sodipodi="http://sodipodi.sourceforge.net/DTD/sodipodi-0.dtd"
   xmlns="http://www.w3.org/2000/svg"
   xmlns:svg="http://www.w3.org/2000/svg"><defs
   id="defs6" /><sodipodi:namedview
   id="namedview6"
   pagecolor="#ffffff"
   bordercolor="#000000"
   borderopacity="0.25"
   inkscape:showpageshadow="2"
   inkscape:pageopacity="0.0"
   inkscape:pagecheckerboard="0"
   inkscape:deskcolor="#d1d1d1"
   inkscape:zoom="20.95"
   inkscape:cx="19.976134"
   inkscape:cy="20"
   inkscape:window-width="1920"
   inkscape:window-height="1094"
   inkscape:window-x="-9"
   inkscape:window-y="-9"
   inkscape:window-maximized="1"
   inkscape:current-layer="_x38_3" />&#10;<path
   fill="#000000"
   d="M19.064,0c0.92,2.022,1.445,4.26,1.445,6.624c0,7.624-5.338,13.997-12.499,15.665  c2.374,2.312,5.621,3.74,9.207,3.74c7.273,0,13.17-5.859,13.17-13.086C30.387,6.34,25.459,0.894,19.064,0z"
   id="path1" />&#10;<linearGradient
   id="SVGID_1_"
   gradientUnits="userSpaceOnUse"
   x1="24.8496"
   y1="53.3555"
   x2="24.8496"
   y2="52.3477"
   gradientTransform="matrix(27.28 0 0 16.564 -654.4213 -855.8264)">&#10;	<stop
   offset="0"
   style="stop-color:#888888"
   id="stop1" />&#10;	<stop
   offset="1"
   style="stop-color:#BEBEBE"
   id="stop2" />&#10;</linearGradient>&#10;<path
   fill="url(#SVGID_1_)"
   d="M31.43,14.198c-0.626,0-1.224,0.102-1.788,0.284c-1.523-1.939-3.881-3.189-6.533-3.189  c-2.524,0-4.785,1.133-6.309,2.916c-0.071-0.002-0.138-0.01-0.209-0.01c-3.795,0-6.87,2.922-6.87,6.529  c0,3.607,3.075,6.531,6.87,6.531c0.825,0,1.613-0.146,2.346-0.399c1.228,0.717,2.648,1.133,4.172,1.133  c2.391,0,4.541-1.019,6.061-2.64c0.694,0.298,1.458,0.462,2.262,0.462c3.2,0,5.79-2.6,5.79-5.807  C37.219,16.796,34.629,14.198,31.43,14.198z"
   id="path2"
   style="fill:#ffffff;fill-opacity:1;stroke:#000000;stroke-opacity:1" />&#10;<linearGradient
   id="SVGID_2_"
   gradientUnits="userSpaceOnUse"
   x1="19.1055"
   y1="39.7539"
   x2="19.1055"
   y2="38.7539"
   gradientTransform="matrix(38 0 0 23.047 -707 -876.2473)">&#10;	<stop
   offset="0"
   style="stop-color:#888888"
   id="stop3" />&#10;	<stop
   offset="1"
   style="stop-color:#BEBEBE"
   id="stop4" />&#10;</linearGradient>&#10;<path
   fill="url(#SVGID_2_)"
   d="M30,20.952c-0.863,0-1.691,0.141-2.471,0.394c-2.105-2.678-5.363-4.402-9.029-4.402  c-3.489,0-6.609,1.564-8.718,4.022c-0.097-0.002-0.191-0.014-0.288-0.014C4.25,20.952,0,24.988,0,29.965  c0,4.979,4.25,9.014,9.494,9.014c1.14,0,2.228-0.201,3.241-0.552c1.697,0.989,3.662,1.564,5.765,1.564  c3.307,0,6.275-1.405,8.374-3.642c0.96,0.407,2.017,0.635,3.126,0.635c4.419,0,8-3.59,8-8.018C38,24.54,34.419,20.952,30,20.952z"
   id="path4"
   style="stroke:#000000;stroke-opacity:1;fill:#ffffff;fill-opacity:1" />&#10;<path
   opacity="0.4"
   fill="#000000"
   enable-background="new    "
   d="M19.064,0c0.92,2.022,1.445,4.26,1.445,6.624  c0,7.624-5.338,13.997-12.499,15.665c2.374,2.312,5.621,3.74,9.207,3.74c7.273,0,13.17-5.859,13.17-13.086  C30.387,6.34,25.459,0.894,19.064,0z"
   id="path5" />&#10;<path
   fill="#9CDEFF"
   d="M7.584,33.121c-1.429,0-2.588-1.146-2.588-2.561c0-1.416,1.375-3.041,2.588-4.607  c1.147,1.615,2.587,3.193,2.587,4.607S9.013,33.121,7.584,33.121z M31.284,32.219c-1.438,0-2.604-1.169-2.604-2.611  c0-1.439,1.385-3.1,2.604-4.696c1.155,1.647,2.604,3.257,2.604,4.696C33.889,31.05,32.723,32.219,31.284,32.219z M18.948,37.18  c-1.813,0-3.284-1.474-3.284-3.291c0-1.818,1.745-3.908,3.284-5.923c1.456,2.078,3.282,4.104,3.282,5.923  C22.23,35.706,20.762,37.18,18.948,37.18z"
   id="path6"
   style="fill:#ffffff;fill-opacity:1;stroke:#000000;stroke-opacity:1" />&#10;</svg>
