<?xml version="1.0" encoding="UTF-8" standalone="no"?>
<!-- Generator: Adobe Illustrator 16.0.4, SVG Export Plug-In . SVG Version: 6.00 Build 0)  -->

<svg
   version="1.1"
   id="_x31_4"
   x="0px"
   y="0px"
   width="40px"
   height="40px"
   viewBox="0 0 40 40"
   enable-background="new 0 0 40 40"
   xml:space="preserve"
   sodipodi:docname="meteoswiss_icon_014.svg"
   inkscape:version="1.3 (0e150ed6c4, 2023-07-21)"
   xmlns:inkscape="http://www.inkscape.org/namespaces/inkscape"
   xmlns:sodipodi="http://sodipodi.sourceforge.net/DTD/sodipodi-0.dtd"
   xmlns="http://www.w3.org/2000/svg"
   xmlns:svg="http://www.w3.org/2000/svg"><defs
   id="defs5" /><sodipodi:namedview
   id="namedview5"
   pagecolor="#ffffff"
   bordercolor="#000000"
   borderopacity="0.25"
   inkscape:showpageshadow="2"
   inkscape:pageopacity="0.0"
   inkscape:pagecheckerboard="0"
   inkscape:deskcolor="#d1d1d1"
   inkscape:zoom="20.95"
   inkscape:cx="19.976134"
   inkscape:cy="20"
   inkscape:window-width="1920"
   inkscape:window-height="1094"
   inkscape:window-x="-9"
   inkscape:window-y="-9"
   inkscape:window-maximized="1"
   inkscape:current-layer="_x31_4" />&#10;<linearGradient
   id="SVGID_1_"
   gradientUnits="userSpaceOnUse"
   x1="25.3311"
   y1="53.1436"
   x2="25.3311"
   y2="52.1357"
   gradientTransform="matrix(27.28 0 0 16.564 -667.5625 -863.6094)">&#10;	<stop
   offset="0"
   style="stop-color:#888888"
   id="stop1" />&#10;	<stop
   offset="1"
   style="stop-color:#BEBEBE"
   id="stop2" />&#10;</linearGradient>&#10;<path
   fill="url(#SVGID_1_)"
   d="M31.43,2.906c-0.626,0-1.224,0.102-1.788,0.284C28.118,1.25,25.761,0,23.108,0  c-2.524,0-4.785,1.133-6.309,2.916c-0.071-0.002-0.138-0.01-0.209-0.01c-3.795,0-6.87,2.922-6.87,6.529  c0,3.607,3.075,6.531,6.87,6.531c0.825,0,1.613-0.146,2.346-0.399c1.228,0.717,2.648,1.133,4.172,1.133  c2.391,0,4.541-1.019,6.061-2.64c0.694,0.298,1.458,0.462,2.262,0.462c3.2,0,5.79-2.6,5.79-5.807  C37.219,5.504,34.629,2.906,31.43,2.906z"
   id="path2"
   style="fill:#ffffff;fill-opacity:1;stroke:#000000;stroke-opacity:1" />&#10;<linearGradient
   id="SVGID_2_"
   gradientUnits="userSpaceOnUse"
   x1="19.5923"
   y1="39.7422"
   x2="19.5923"
   y2="38.7422"
   gradientTransform="matrix(38 0 0 23.047 -725.5 -887.2656)">&#10;	<stop
   offset="0"
   style="stop-color:#ffffff;stop-opacity:1;"
   id="stop3" />&#10;	<stop
   offset="1"
   style="stop-color:#BEBEBE"
   id="stop4" />&#10;</linearGradient>&#10;<path
   fill="url(#SVGID_2_)"
   d="M30,9.66c-0.863,0-1.691,0.141-2.471,0.394c-2.105-2.678-5.363-4.402-9.029-4.402  c-3.489,0-6.609,1.564-8.718,4.022C9.685,9.672,9.591,9.66,9.494,9.66C4.25,9.66,0,13.696,0,18.673c0,4.979,4.25,9.014,9.494,9.014  c1.14,0,2.228-0.201,3.241-0.552c1.697,0.989,3.662,1.564,5.765,1.564c3.307,0,6.275-1.405,8.374-3.642  c0.96,0.407,2.017,0.635,3.126,0.635c4.419,0,8-3.59,8-8.018C38,13.248,34.419,9.66,30,9.66z"
   id="path4"
   style="stroke:#000000;stroke-opacity:1;fill:#ffffff;fill-opacity:1" />&#10;<path
   fill="#7AC4E9"
   d="M31.284,35.024c-1.438,0-2.604-1.173-2.604-2.618s1.383-3.108,2.604-4.713  c1.155,1.653,2.604,3.268,2.604,4.713S32.723,35.024,31.284,35.024z M19.284,40C17.471,40,16,38.521,16,36.699  s1.745-3.918,3.284-5.94c1.456,2.084,3.282,4.118,3.282,5.94C22.566,38.522,21.098,40,19.284,40z"
   id="path5"
   style="fill:#fafdfe;fill-opacity:1;stroke:#000000;stroke-opacity:1" />&#10;</svg>
