<?xml version="1.0" encoding="UTF-8" standalone="no"?>
<!-- Generator: Adobe Illustrator 16.0.4, SVG Export Plug-In . SVG Version: 6.00 Build 0)  -->

<svg
   version="1.1"
   id="_x32_"
   x="0px"
   y="0px"
   width="40px"
   height="40px"
   viewBox="0 0 40 40"
   enable-background="new 0 0 40 40"
   xml:space="preserve"
   sodipodi:docname="2.svg"
   inkscape:version="1.3 (0e150ed6c4, 2023-07-21)"
   xmlns:inkscape="http://www.inkscape.org/namespaces/inkscape"
   xmlns:sodipodi="http://sodipodi.sourceforge.net/DTD/sodipodi-0.dtd"
   xmlns="http://www.w3.org/2000/svg"
   xmlns:svg="http://www.w3.org/2000/svg"><defs
   id="defs4" /><sodipodi:namedview
   id="namedview4"
   pagecolor="#ffffff"
   bordercolor="#000000"
   borderopacity="0.25"
   inkscape:showpageshadow="2"
   inkscape:pageopacity="0.0"
   inkscape:pagecheckerboard="0"
   inkscape:deskcolor="#d1d1d1"
   inkscape:zoom="20.95"
   inkscape:cx="19.976134"
   inkscape:cy="20"
   inkscape:window-width="1920"
   inkscape:window-height="1094"
   inkscape:window-x="-9"
   inkscape:window-y="-9"
   inkscape:window-maximized="1"
   inkscape:current-layer="_x32_" />&#10;<path
   fill="#000000"
   d="M27.721,9.862c-0.438,0.438-1.147,0.438-1.585,0c-0.438-0.438-0.438-1.147,0-1.586l2.591-2.59  c0.439-0.438,1.149-0.438,1.585,0c0.439,0.438,0.44,1.147,0,1.585L27.721,9.862z M18.999,25.051c-4.438,0-8.05-3.613-8.05-8.051  c0-4.438,3.612-8.05,8.05-8.05c4.438,0,8.05,3.612,8.05,8.05C27.049,21.438,23.438,25.051,18.999,25.051z M10.277,9.862L7.685,7.271  c-0.438-0.438-0.438-1.147,0-1.585c0.438-0.438,1.148-0.438,1.586,0l2.591,2.59c0.438,0.438,0.438,1.147,0,1.586  C11.425,10.3,10.714,10.3,10.277,9.862z M10.278,24.138c0.438-0.439,1.148-0.438,1.586,0s0.438,1.146,0,1.584l-2.591,2.593  c-0.438,0.438-1.148,0.438-1.585,0c-0.438-0.438-0.438-1.146,0-1.587L10.278,24.138z M27.721,24.136l2.591,2.592  c0.44,0.438,0.44,1.146,0,1.584c-0.437,0.438-1.146,0.438-1.585,0l-2.591-2.59c-0.438-0.438-0.438-1.148,0-1.586  C26.575,23.698,27.283,23.698,27.721,24.136z M19.918,5.786c0,0.619-0.387,1.121-1.006,1.121c-0.619-0.001-1.005-0.502-1.005-1.121  V2.122c0-0.62,0.387-1.122,1.005-1.122s1.006,0.502,1.006,1.122V5.786z M7.786,17.919H4.121C3.502,17.919,3,17.532,3,16.914  c0-0.622,0.502-1.006,1.121-1.006h3.665c0.62,0,1.121,0.384,1.121,1.006C8.907,17.532,8.406,17.919,7.786,17.919z M17.907,28.214  c0-0.62,0.387-1.123,1.005-1.121c0.619,0,1.006,0.501,1.006,1.121v3.665c0,0.617-0.387,1.121-1.006,1.121  c-0.62,0-1.005-0.504-1.005-1.121V28.214z M30.214,15.908h3.663c0.621,0,1.123,0.384,1.123,1.006c0,0.618-0.502,1.005-1.123,1.005  h-3.663c-0.62,0-1.122-0.388-1.122-1.005C29.092,16.292,29.593,15.908,30.214,15.908z"
   id="path1" />&#10;<linearGradient
   id="SVGID_1_"
   gradientUnits="userSpaceOnUse"
   x1="39.124"
   y1="-33.1104"
   x2="39.124"
   y2="-32.1021"
   gradientTransform="matrix(27.28 0 0 -16.564 -1041.0469 -510.4844)">&#10;	<stop
   offset="0"
   style="stop-color:#CBCBCB"
   id="stop1" />&#10;	<stop
   offset="0.4852"
   style="stop-color:#D8D8D8"
   id="stop2" />&#10;	<stop
   offset="1"
   style="stop-color:#E1E1E1"
   id="stop3" />&#10;</linearGradient>&#10;<path
   fill="url(#SVGID_1_)"
   d="M34.209,24.205c-0.626,0-1.224,0.102-1.788,0.284c-1.523-1.938-3.881-3.189-6.532-3.189  c-2.524,0-4.785,1.134-6.309,2.915c-0.071-0.002-0.138-0.01-0.209-0.01c-3.795,0-6.87,2.923-6.87,6.529  c0,3.607,3.075,6.531,6.87,6.531c0.825,0,1.614-0.146,2.346-0.398C22.944,37.584,24.365,38,25.889,38c2.391,0,4.541-1.02,6.062-2.64  c0.693,0.298,1.457,0.462,2.261,0.462c3.201,0,5.789-2.6,5.789-5.808C39.998,26.804,37.408,24.205,34.209,24.205z"
   id="path3"
   style="fill:#ffffff;fill-opacity:1;stroke:#000000;stroke-opacity:1" />&#10;<path
   opacity="0.2"
   fill="#000000"
   enable-background="new    "
   d="M27.721,9.862c-0.438,0.438-1.147,0.438-1.585,0  c-0.438-0.438-0.438-1.147,0-1.586l2.591-2.59c0.439-0.438,1.149-0.438,1.585,0c0.439,0.438,0.44,1.147,0,1.585L27.721,9.862z   M18.999,25.051c-4.438,0-8.05-3.613-8.05-8.051c0-4.438,3.612-8.05,8.05-8.05c4.438,0,8.05,3.612,8.05,8.05  C27.049,21.438,23.438,25.051,18.999,25.051z M10.277,9.862L7.685,7.271c-0.438-0.438-0.438-1.147,0-1.585  c0.438-0.438,1.148-0.438,1.586,0l2.591,2.59c0.438,0.438,0.438,1.147,0,1.586C11.425,10.3,10.714,10.3,10.277,9.862z   M10.278,24.138c0.438-0.439,1.148-0.438,1.586,0s0.438,1.146,0,1.584l-2.591,2.593c-0.438,0.438-1.148,0.438-1.585,0  c-0.438-0.438-0.438-1.146,0-1.587L10.278,24.138z M27.721,24.136l2.591,2.592c0.44,0.438,0.44,1.146,0,1.584  c-0.437,0.438-1.146,0.438-1.585,0l-2.591-2.59c-0.438-0.438-0.438-1.148,0-1.586C26.575,23.698,27.283,23.698,27.721,24.136z   M19.918,5.786c0,0.619-0.387,1.121-1.006,1.121c-0.619-0.001-1.005-0.502-1.005-1.121V2.122c0-0.62,0.387-1.122,1.005-1.122  s1.006,0.502,1.006,1.122V5.786z M7.786,17.919H4.121C3.502,17.919,3,17.532,3,16.914c0-0.622,0.502-1.006,1.121-1.006h3.665  c0.62,0,1.121,0.384,1.121,1.006C8.907,17.532,8.406,17.919,7.786,17.919z M17.907,28.214c0-0.62,0.387-1.123,1.005-1.121  c0.619,0,1.006,0.501,1.006,1.121v3.665c0,0.617-0.387,1.121-1.006,1.121c-0.62,0-1.005-0.504-1.005-1.121V28.214z M30.214,15.908  h3.663c0.621,0,1.123,0.384,1.123,1.006c0,0.618-0.502,1.005-1.123,1.005h-3.663c-0.62,0-1.122-0.388-1.122-1.005  C29.092,16.292,29.593,15.908,30.214,15.908z"
   id="path4" />&#10;</svg>
