<?xml version="1.0" encoding="utf-8"?>
<!-- Generator: Adobe Illustrator 16.0.4, SVG Export Plug-In . SVG Version: 6.00 Build 0)  -->
<!DOCTYPE svg PUBLIC "-//W3C//DTD SVG 1.1//EN" "http://www.w3.org/Graphics/SVG/1.1/DTD/svg11.dtd">
<svg version="1.1" id="_x32_6_1_" xmlns="http://www.w3.org/2000/svg" xmlns:xlink="http://www.w3.org/1999/xlink" x="0px" y="0px"
	 width="40px" height="40px" viewBox="0 0 40 40" enable-background="new 0 0 40 40" xml:space="preserve">
<path fill="#000000" d="M27.722,16.862c-0.438,0.438-1.147,0.438-1.584,0c-0.438-0.438-0.438-1.147,0-1.585l2.589-2.591
	c0.438-0.438,1.147-0.438,1.587,0c0.438,0.438,0.438,1.147,0,1.584L27.722,16.862z M19,32.05c-4.438,0-8.051-3.61-8.051-8.049
	c0-4.439,3.612-8.051,8.051-8.051c4.437,0,8.05,3.612,8.05,8.051C27.051,28.439,23.438,32.05,19,32.05z M10.277,16.862l-2.593-2.592
	c-0.437-0.438-0.437-1.147,0-1.584c0.44-0.438,1.149-0.438,1.588,0l2.591,2.591c0.438,0.438,0.438,1.147,0,1.585
	C11.426,17.301,10.715,17.301,10.277,16.862z M10.278,31.139c0.438-0.439,1.148-0.438,1.586,0s0.438,1.146,0,1.585l-2.591,2.592
	c-0.438,0.438-1.147,0.438-1.587,0c-0.437-0.437-0.437-1.149,0-1.587L10.278,31.139z M27.724,31.135l2.59,2.594
	c0.439,0.438,0.439,1.146,0,1.585c-0.438,0.438-1.146,0.438-1.585,0l-2.591-2.59c-0.438-0.438-0.438-1.147,0-1.589
	C26.576,30.697,27.284,30.697,27.724,31.135z M19.919,12.786c0,0.62-0.388,1.122-1.005,1.122c-0.62-0.001-1.006-0.502-1.006-1.122
	V9.122c0-0.62,0.386-1.122,1.006-1.122c0.617,0,1.005,0.502,1.005,1.122V12.786z M7.786,24.918H4.122
	C3.502,24.918,3,24.532,3,23.913c0-0.621,0.502-1.005,1.122-1.005h3.665c0.62,0,1.121,0.384,1.121,1.005
	C8.907,24.532,8.406,24.918,7.786,24.918z M17.908,35.214c0-0.618,0.386-1.122,1.006-1.12c0.617,0,1.005,0.502,1.005,1.12v3.664
	c0,0.618-0.388,1.122-1.005,1.122c-0.621,0-1.006-0.504-1.006-1.122V35.214z M30.214,22.908h3.666c0.619,0,1.12,0.384,1.12,1.005
	c0,0.619-0.501,1.005-1.12,1.005h-3.666c-0.618,0-1.12-0.386-1.12-1.005C29.094,23.292,29.594,22.908,30.214,22.908z"/>
<linearGradient id="SVGID_1_" gradientUnits="userSpaceOnUse" x1="21" y1="40.9893" x2="21" y2="35.7295" gradientTransform="matrix(1 0 0 -1 0 55.7422)">
	<stop  offset="0" style="stop-color:#CBCBCB"/>
	<stop  offset="0.175" style="stop-color:#D8D8D8"/>
	<stop  offset="1" style="stop-color:#EBEBEB"/>
</linearGradient>
<path fill="url(#SVGID_1_)" d="M32.358,20C29.997,20,15.927,18.479,6,17.373v-1.257C15.473,16.924,28.77,18,32.358,18
	c1.796,0,3.258-1.462,3.258-3.259C36.758,17.622,35.261,20,32.358,20z"/>
<linearGradient id="SVGID_2_" gradientUnits="userSpaceOnUse" x1="19" y1="45.9893" x2="19" y2="40.7295" gradientTransform="matrix(1 0 0 -1 0 55.7422)">
	<stop  offset="0" style="stop-color:#CBCBCB"/>
	<stop  offset="0.175" style="stop-color:#D8D8D8"/>
	<stop  offset="1" style="stop-color:#EBEBEB"/>
</linearGradient>
<path fill="url(#SVGID_2_)" d="M30.358,15C27.997,15,13.927,13.479,4,12.373v-1.257C13.473,11.924,26.77,13,30.358,13
	c1.796,0,3.258-1.462,3.258-3.259C34.758,12.622,33.261,15,30.358,15z"/>
<linearGradient id="SVGID_3_" gradientUnits="userSpaceOnUse" x1="17" y1="50.9893" x2="17" y2="45.7295" gradientTransform="matrix(1 0 0 -1 0 55.7422)">
	<stop  offset="0" style="stop-color:#CBCBCB"/>
	<stop  offset="0.175" style="stop-color:#D8D8D8"/>
	<stop  offset="1" style="stop-color:#EBEBEB"/>
</linearGradient>
<path fill="url(#SVGID_3_)" d="M28.358,10C25.997,10,11.927,8.479,2,7.373V6.116C11.473,6.924,24.77,8,28.358,8
	c1.796,0,3.258-1.462,3.258-3.259C32.758,7.622,31.261,10,28.358,10z"/>
<linearGradient id="SVGID_4_" gradientUnits="userSpaceOnUse" x1="15" y1="55.7295" x2="15" y2="50.4717" gradientTransform="matrix(1 0 0 -1 0 55.7422)">
	<stop  offset="0" style="stop-color:#CBCBCB"/>
	<stop  offset="0.175" style="stop-color:#D8D8D8"/>
	<stop  offset="1" style="stop-color:#EBEBEB"/>
</linearGradient>
<path fill="url(#SVGID_4_)" d="M26.358,5.259C23.997,5.259,9.928,3.738,0,2.632V1.375c9.473,0.808,22.77,1.884,26.358,1.884
	c1.796,0,3.258-1.462,3.258-3.259C30.758,2.881,29.261,5.259,26.358,5.259z"/>
<path opacity="0.2" fill="#000000" d="M27.722,16.862c-0.438,0.438-1.148,0.438-1.585,0c-0.437-0.438-0.437-1.147,0-1.585
	l2.589-2.591c0.438-0.438,1.148-0.438,1.587,0c0.438,0.438,0.438,1.147,0,1.584L27.722,16.862z M19,32.05
	c-4.439,0-8.051-3.61-8.051-8.049c0-4.439,3.612-8.051,8.051-8.051c4.437,0,8.05,3.612,8.05,8.051
	C27.051,28.439,23.438,32.05,19,32.05z M10.277,16.862l-2.593-2.592c-0.438-0.438-0.438-1.147,0-1.584
	c0.44-0.438,1.149-0.438,1.587,0l2.591,2.591c0.438,0.438,0.438,1.147,0,1.585C11.425,17.301,10.715,17.301,10.277,16.862z
	 M10.278,31.139c0.438-0.439,1.148-0.438,1.586,0c0.438,0.438,0.438,1.146,0,1.585l-2.591,2.592c-0.438,0.438-1.147,0.438-1.586,0
	c-0.437-0.437-0.437-1.149,0-1.587L10.278,31.139z M27.724,31.135l2.589,2.594c0.44,0.438,0.44,1.146,0,1.585
	c-0.437,0.438-1.145,0.438-1.585,0l-2.591-2.59c-0.437-0.438-0.437-1.147,0-1.589C26.575,30.697,27.283,30.697,27.724,31.135z
	 M19.919,12.786c0,0.62-0.388,1.122-1.005,1.122c-0.62-0.001-1.006-0.502-1.006-1.122V9.122c0-0.62,0.386-1.122,1.006-1.122
	c0.618,0,1.005,0.502,1.005,1.122V12.786z M7.786,24.918H4.121C3.502,24.918,3,24.532,3,23.913c0-0.621,0.502-1.005,1.121-1.005
	h3.665c0.621,0,1.121,0.384,1.121,1.005C8.907,24.532,8.406,24.918,7.786,24.918z M17.908,35.214c0-0.618,0.386-1.122,1.006-1.12
	c0.618,0,1.005,0.502,1.005,1.12v3.664c0,0.618-0.388,1.122-1.005,1.122c-0.621,0-1.006-0.504-1.006-1.122V35.214z M30.213,22.908
	h3.666c0.618,0,1.121,0.384,1.121,1.005c0,0.619-0.503,1.005-1.121,1.005h-3.666c-0.618,0-1.119-0.386-1.119-1.005
	C29.094,23.292,29.593,22.908,30.213,22.908z"/>
</svg>
