<?xml version="1.0" encoding="utf-8"?>
<!-- Generator: Adobe Illustrator 16.0.4, SVG Export Plug-In . SVG Version: 6.00 Build 0)  -->
<!DOCTYPE svg PUBLIC "-//W3C//DTD SVG 1.1//EN" "http://www.w3.org/Graphics/SVG/1.1/DTD/svg11.dtd">
<svg version="1.1" id="_x32_7" xmlns="http://www.w3.org/2000/svg" xmlns:xlink="http://www.w3.org/1999/xlink" x="0px" y="0px"
	 width="40px" height="40px" viewBox="0 0 40 40" enable-background="new 0 0 40 40" xml:space="preserve">
<path fill="#000000" d="M27.722,12.862c-0.438,0.438-1.147,0.438-1.584,0c-0.438-0.438-0.438-1.147,0-1.585l2.589-2.591
	c0.438-0.438,1.147-0.438,1.587,0c0.438,0.438,0.438,1.147,0,1.584L27.722,12.862z M19,28.05c-4.438,0-8.051-3.61-8.051-8.049
	c0-4.439,3.612-8.051,8.051-8.051c4.437,0,8.05,3.612,8.05,8.051C27.051,24.439,23.438,28.05,19,28.05z M10.277,12.862l-2.593-2.592
	c-0.437-0.438-0.437-1.147,0-1.584c0.44-0.438,1.149-0.438,1.588,0l2.591,2.591c0.438,0.438,0.438,1.147,0,1.585
	C11.426,13.301,10.715,13.301,10.277,12.862z M10.278,27.139c0.438-0.439,1.148-0.438,1.586,0s0.438,1.146,0,1.585l-2.591,2.592
	c-0.438,0.438-1.147,0.438-1.587,0c-0.437-0.437-0.437-1.149,0-1.587L10.278,27.139z M27.724,27.135l2.59,2.594
	c0.439,0.438,0.439,1.146,0,1.585c-0.438,0.438-1.146,0.438-1.585,0l-2.591-2.59c-0.438-0.438-0.438-1.147,0-1.589
	C26.576,26.697,27.284,26.697,27.724,27.135z M19.919,8.786c0,0.62-0.388,1.122-1.005,1.122c-0.62-0.001-1.006-0.502-1.006-1.122
	V5.122c0-0.62,0.386-1.122,1.006-1.122c0.617,0,1.005,0.502,1.005,1.122V8.786z M7.786,20.918H4.122C3.502,20.918,3,20.532,3,19.913
	c0-0.621,0.502-1.005,1.122-1.005h3.665c0.62,0,1.121,0.384,1.121,1.005C8.907,20.532,8.406,20.918,7.786,20.918z M17.908,31.214
	c0-0.618,0.386-1.122,1.006-1.12c0.617,0,1.005,0.502,1.005,1.12v3.664c0,0.618-0.388,1.122-1.005,1.122
	c-0.621,0-1.006-0.504-1.006-1.122V31.214z M30.214,18.908h3.666c0.619,0,1.12,0.384,1.12,1.005c0,0.619-0.501,1.005-1.12,1.005
	h-3.666c-0.618,0-1.12-0.386-1.12-1.005C29.094,19.292,29.594,18.908,30.214,18.908z"/>
<linearGradient id="SVGID_1_" gradientUnits="userSpaceOnUse" x1="18.9995" y1="40" x2="18.9995" y2="23">
	<stop  offset="0" style="stop-color:#CBCBCB"/>
	<stop  offset="0.4852" style="stop-color:#D8D8D8"/>
	<stop  offset="1" style="stop-color:#E1E1E1"/>
</linearGradient>
<path fill-rule="evenodd" clip-rule="evenodd" fill="url(#SVGID_1_)" d="M0.999,25c-0.617,0.002-1-0.396-0.999-1.012
	C0,23.373,0.383,23.001,0.999,23h36c0.616,0,1,0.373,1,0.988c0,0.616-0.384,1.012-1,1.012H0.999z M0.999,28
	c-0.617,0.002-1-0.396-0.999-1.012C0,26.373,0.383,26.001,0.999,26h36c0.616,0,1,0.373,1,0.988c0,0.616-0.384,1.012-1,1.012H0.999z
	 M0.999,31c-0.617,0.002-1-0.396-0.999-1.012C0,29.373,0.383,29.001,0.999,29h36c0.616,0,1,0.373,1,0.988
	c0,0.616-0.384,1.012-1,1.012H0.999z M0.999,34c-0.617,0.002-1-0.396-0.999-1.012C0,32.373,0.383,32.001,0.999,32h36
	c0.616,0,1,0.373,1,0.988c0,0.616-0.384,1.012-1,1.012H0.999z M0.999,37c-0.617,0.002-1-0.396-0.999-1.012
	C0,35.373,0.383,35.001,0.999,35h36c0.616,0,1,0.373,1,0.988c0,0.616-0.384,1.012-1,1.012H0.999z M0.999,40
	c-0.617,0.002-1-0.396-0.999-1.012C0,38.373,0.383,38.001,0.999,38h36c0.616,0,1,0.373,1,0.988c0,0.616-0.384,1.012-1,1.012H0.999z"
	/>
<path opacity="0.2" fill="#000000" d="M27.722,12.862c-0.438,0.438-1.148,0.438-1.585,0c-0.437-0.438-0.437-1.147,0-1.585
	l2.589-2.591c0.438-0.438,1.148-0.438,1.587,0c0.438,0.438,0.438,1.147,0,1.584L27.722,12.862z M19,28.05
	c-4.439,0-8.051-3.61-8.051-8.049c0-4.439,3.612-8.051,8.051-8.051c4.437,0,8.05,3.612,8.05,8.051
	C27.051,24.439,23.438,28.05,19,28.05z M10.277,12.862l-2.593-2.592c-0.438-0.438-0.438-1.147,0-1.584
	c0.44-0.438,1.149-0.438,1.587,0l2.591,2.591c0.438,0.438,0.438,1.147,0,1.585C11.425,13.301,10.715,13.301,10.277,12.862z
	 M10.278,27.139c0.438-0.439,1.148-0.438,1.586,0c0.438,0.438,0.438,1.146,0,1.585l-2.591,2.592c-0.438,0.438-1.147,0.438-1.586,0
	c-0.437-0.437-0.437-1.149,0-1.587L10.278,27.139z M27.724,27.135l2.589,2.594c0.44,0.438,0.44,1.146,0,1.585
	c-0.437,0.438-1.145,0.438-1.585,0l-2.591-2.59c-0.437-0.438-0.437-1.147,0-1.589C26.575,26.697,27.283,26.697,27.724,27.135z
	 M19.919,8.786c0,0.62-0.388,1.122-1.005,1.122c-0.62-0.001-1.006-0.502-1.006-1.122V5.122c0-0.62,0.386-1.122,1.006-1.122
	c0.618,0,1.005,0.502,1.005,1.122V8.786z M7.786,20.918H4.121C3.502,20.918,3,20.532,3,19.913c0-0.621,0.502-1.005,1.121-1.005
	h3.665c0.621,0,1.121,0.384,1.121,1.005C8.907,20.532,8.406,20.918,7.786,20.918z M17.908,31.214c0-0.618,0.386-1.122,1.006-1.12
	c0.618,0,1.005,0.502,1.005,1.12v3.664c0,0.618-0.388,1.122-1.005,1.122c-0.621,0-1.006-0.504-1.006-1.122V31.214z M30.213,18.908
	h3.666c0.618,0,1.121,0.384,1.121,1.005c0,0.619-0.503,1.005-1.121,1.005h-3.666c-0.618,0-1.119-0.386-1.119-1.005
	C29.094,19.292,29.593,18.908,30.213,18.908z"/>
</svg>
