<?xml version="1.0" encoding="utf-8"?>
<!-- Generator: Adobe Illustrator 16.0.4, SVG Export Plug-In . SVG Version: 6.00 Build 0)  -->
<!DOCTYPE svg PUBLIC "-//W3C//DTD SVG 1.1//EN" "http://www.w3.org/Graphics/SVG/1.1/DTD/svg11.dtd">
<svg version="1.1" id="_x32_8" xmlns="http://www.w3.org/2000/svg" xmlns:xlink="http://www.w3.org/1999/xlink" x="0px" y="0px"
	 width="40px" height="40px" viewBox="0 0 40 40" enable-background="new 0 0 40 40" xml:space="preserve">
<linearGradient id="SVGID_1_" gradientUnits="userSpaceOnUse" x1="18.9995" y1="22" x2="18.9995" y2="5.0005">
	<stop  offset="0" style="stop-color:#CBCBCB"/>
	<stop  offset="0.4852" style="stop-color:#D8D8D8"/>
	<stop  offset="1" style="stop-color:#E1E1E1"/>
</linearGradient>
<path fill-rule="evenodd" clip-rule="evenodd" fill="url(#SVGID_1_)" d="M0.999,7C0.382,7.002-0.001,6.604,0,5.988
	C0,5.373,0.383,5.001,0.999,5h36c0.616,0,1,0.373,1,0.988c0,0.617-0.384,1.012-1,1.012H0.999z M0.999,10
	c-0.617,0.002-1-0.396-0.999-1.012C0,8.373,0.383,8.001,0.999,8h36c0.616,0,1,0.373,1,0.988c0,0.617-0.384,1.012-1,1.012H0.999z
	 M0.999,13c-0.617,0.002-1-0.396-0.999-1.012C0,11.373,0.383,11.001,0.999,11h36c0.616,0,1,0.373,1,0.988
	c0,0.617-0.384,1.012-1,1.012H0.999z M0.999,16c-0.617,0.002-1-0.396-0.999-1.012C0,14.373,0.383,14.001,0.999,14h36
	c0.616,0,1,0.373,1,0.988c0,0.617-0.384,1.012-1,1.012H0.999z M0.999,19c-0.617,0.002-1-0.396-0.999-1.012
	C0,17.373,0.383,17.001,0.999,17h36c0.616,0,1,0.373,1,0.988c0,0.616-0.384,1.012-1,1.012H0.999z M0.999,22
	c-0.617,0.002-1-0.396-0.999-1.012C0,20.373,0.383,20.001,0.999,20h36c0.616,0,1,0.373,1,0.988c0,0.616-0.384,1.012-1,1.012H0.999z"
	/>
<linearGradient id="SVGID_2_" gradientUnits="userSpaceOnUse" x1="18.9995" y1="40" x2="18.9995" y2="23">
	<stop  offset="0" style="stop-color:#CBCBCB"/>
	<stop  offset="0.4852" style="stop-color:#D8D8D8"/>
	<stop  offset="1" style="stop-color:#E1E1E1"/>
</linearGradient>
<path fill-rule="evenodd" clip-rule="evenodd" fill="url(#SVGID_2_)" d="M0.999,25c-0.617,0.002-1-0.396-0.999-1.012
	C0,23.373,0.383,23.001,0.999,23h36c0.616,0,1,0.373,1,0.988c0,0.616-0.384,1.012-1,1.012H0.999z M0.999,28
	c-0.617,0.002-1-0.396-0.999-1.012C0,26.373,0.383,26.001,0.999,26h36c0.616,0,1,0.373,1,0.988c0,0.616-0.384,1.012-1,1.012H0.999z
	 M0.999,31c-0.617,0.002-1-0.396-0.999-1.012C0,29.373,0.383,29.001,0.999,29h36c0.616,0,1,0.373,1,0.988
	c0,0.616-0.384,1.012-1,1.012H0.999z M0.999,34c-0.617,0.002-1-0.396-0.999-1.012C0,32.373,0.383,32.001,0.999,32h36
	c0.616,0,1,0.373,1,0.988c0,0.616-0.384,1.012-1,1.012H0.999z M0.999,37c-0.617,0.002-1-0.396-0.999-1.012
	C0,35.373,0.383,35.001,0.999,35h36c0.616,0,1,0.373,1,0.988c0,0.616-0.384,1.012-1,1.012H0.999z M0.999,40
	c-0.617,0.002-1-0.396-0.999-1.012C0,38.373,0.383,38.001,0.999,38h36c0.616,0,1,0.373,1,0.988c0,0.616-0.384,1.012-1,1.012H0.999z"
	/>
</svg>
