<?xml version="1.0" encoding="UTF-8" standalone="no"?>
<!-- Generator: Adobe Illustrator 18.1.0, SVG Export Plug-In . SVG Version: 6.00 Build 0)  -->

<svg
   version="1.1"
   id="_x33_5"
   x="0px"
   y="0px"
   width="40px"
   height="40px"
   viewBox="-436 285.7 40 40"
   enable-background="new -436 285.7 40 40"
   xml:space="preserve"
   sodipodi:docname="35.svg"
   inkscape:version="1.3 (0e150ed6c4, 2023-07-21)"
   xmlns:inkscape="http://www.inkscape.org/namespaces/inkscape"
   xmlns:sodipodi="http://sodipodi.sourceforge.net/DTD/sodipodi-0.dtd"
   xmlns="http://www.w3.org/2000/svg"
   xmlns:svg="http://www.w3.org/2000/svg"><defs
   id="defs6" /><sodipodi:namedview
   id="namedview6"
   pagecolor="#ffffff"
   bordercolor="#000000"
   borderopacity="0.25"
   inkscape:showpageshadow="2"
   inkscape:pageopacity="0.0"
   inkscape:pagecheckerboard="0"
   inkscape:deskcolor="#d1d1d1"
   inkscape:zoom="20.95"
   inkscape:cx="19.976134"
   inkscape:cy="20"
   inkscape:window-width="1920"
   inkscape:window-height="1094"
   inkscape:window-x="-9"
   inkscape:window-y="-9"
   inkscape:window-maximized="1"
   inkscape:current-layer="_x33_5" />&#10;<linearGradient
   id="SVGID_1_"
   gradientUnits="userSpaceOnUse"
   x1="-815.0325"
   y1="667.3652"
   x2="-815.0325"
   y2="666.357"
   gradientTransform="matrix(27.28 0 0 16.564 21822.5547 -10746.2764)">&#10;	<stop
   offset="0"
   style="stop-color:#CBCBCB"
   id="stop1" />&#10;	<stop
   offset="0.75"
   style="stop-color:#D8D8D8"
   id="stop2" />&#10;	<stop
   offset="1"
   style="stop-color:#E1E1E1"
   id="stop3" />&#10;</linearGradient>&#10;<path
   fill="url(#SVGID_1_)"
   d="M-403.6,294.2c-0.6,0-1.2,0.1-1.8,0.3c-1.5-1.9-3.9-3.2-6.5-3.2c-2.5,0-4.8,1.1-6.3,2.9  c-0.1,0-0.1,0-0.2,0c-3.8,0-6.9,2.9-6.9,6.5s3.1,6.5,6.9,6.5c0.8,0,1.6-0.1,2.3-0.4c1.2,0.7,2.6,1.1,4.2,1.1c2.4,0,4.5-1,6.1-2.6  c0.7,0.3,1.5,0.5,2.3,0.5c3.2,0,5.8-2.6,5.8-5.8C-397.8,296.8-400.4,294.2-403.6,294.2z"
   id="path3"
   style="fill:#ffffff;fill-opacity:1;stroke:#000000;stroke-opacity:1" />&#10;<linearGradient
   id="SVGID_2_"
   gradientUnits="userSpaceOnUse"
   x1="143"
   y1="-513.398"
   x2="143"
   y2="-490.351"
   gradientTransform="matrix(1 0 0 -1 -559 -193.398)">&#10;	<stop
   offset="0"
   style="stop-color:#CBCBCB"
   id="stop4" />&#10;	<stop
   offset="0.4852"
   style="stop-color:#D8D8D8"
   id="stop5" />&#10;	<stop
   offset="1"
   style="stop-color:#E1E1E1"
   id="stop6" />&#10;</linearGradient>&#10;<path
   fill="url(#SVGID_2_)"
   d="M-405,301c-0.9,0-1.7,0.1-2.5,0.4c-2.1-2.7-5.4-4.4-9-4.4c-3.5,0-6.6,1.6-8.7,4c-0.1,0-0.2,0-0.3,0  c-5.2,0-9.5,4-9.5,9c0,5,4.2,9,9.5,9c1.1,0,2.2-0.2,3.2-0.6c1.7,1,3.7,1.6,5.8,1.6c3.3,0,6.3-1.4,8.4-3.6c1,0.4,2,0.6,3.1,0.6  c4.4,0,8-3.6,8-8C-397,304.5-400.6,301-405,301z"
   id="path6"
   style="stroke:#000000;stroke-opacity:1;fill:#ffffff;fill-opacity:1" />&#10;</svg>
