<?xml version="1.0" encoding="UTF-8" standalone="no"?>
<!-- Generator: Adobe Illustrator 16.0.4, SVG Export Plug-In . SVG Version: 6.00 Build 0)  -->

<svg
   version="1.1"
   id="Ebene_1"
   x="0px"
   y="0px"
   width="38px"
   height="37px"
   viewBox="0 0 38 37"
   enable-background="new 0 0 38 37"
   xml:space="preserve"
   sodipodi:docname="53.svg"
   inkscape:version="1.3 (0e150ed6c4, 2023-07-21)"
   xmlns:inkscape="http://www.inkscape.org/namespaces/inkscape"
   xmlns:sodipodi="http://sodipodi.sourceforge.net/DTD/sodipodi-0.dtd"
   xmlns="http://www.w3.org/2000/svg"
   xmlns:svg="http://www.w3.org/2000/svg"><defs
   id="defs7" /><sodipodi:namedview
   id="namedview7"
   pagecolor="#ffffff"
   bordercolor="#000000"
   borderopacity="0.25"
   inkscape:showpageshadow="2"
   inkscape:pageopacity="0.0"
   inkscape:pagecheckerboard="0"
   inkscape:deskcolor="#d1d1d1"
   inkscape:zoom="22.648649"
   inkscape:cx="19.007757"
   inkscape:cy="18.5"
   inkscape:window-width="1920"
   inkscape:window-height="1094"
   inkscape:window-x="-9"
   inkscape:window-y="-9"
   inkscape:window-maximized="1"
   inkscape:current-layer="Ebene_1" />&#10;<path
   fill="#000000"
   d="M19.064,0c0.92,2.022,1.445,4.26,1.445,6.624c0,7.624-5.338,13.997-12.499,15.665  c2.374,2.312,5.621,3.74,9.207,3.74c7.273,0,13.17-5.859,13.17-13.086C30.387,6.34,25.459,0.894,19.064,0z"
   id="path1" />&#10;<linearGradient
   id="SVGID_1_"
   gradientUnits="userSpaceOnUse"
   x1="304.8594"
   y1="-391.9917"
   x2="304.8594"
   y2="-375.4268"
   gradientTransform="matrix(1 0 0 -1 -281.5 -367)">&#10;	<stop
   offset="0"
   style="stop-color:#CBCBCB"
   id="stop1" />&#10;	<stop
   offset="0.4852"
   style="stop-color:#D8D8D8"
   id="stop2" />&#10;	<stop
   offset="1"
   style="stop-color:#E1E1E1"
   id="stop3" />&#10;</linearGradient>&#10;<path
   fill="url(#SVGID_1_)"
   d="M31.256,11.309c-0.621,0-1.214,0.101-1.773,0.282C27.971,9.667,25.632,8.427,23,8.427  c-2.504,0-4.746,1.124-6.258,2.892c-0.07-0.002-0.137-0.01-0.208-0.01c-3.764,0-6.815,2.899-6.815,6.477s3.051,6.478,6.815,6.478  c0.819,0,1.601-0.145,2.328-0.396c1.217,0.711,2.627,1.124,4.138,1.124c2.372,0,4.505-1.012,6.012-2.618  c0.689,0.295,1.447,0.458,2.244,0.458c3.174,0,5.743-2.579,5.743-5.761C36.999,13.887,34.43,11.309,31.256,11.309z"
   id="path3"
   style="fill:#ffffff;fill-opacity:1;stroke:#000000;stroke-opacity:1" />&#10;<linearGradient
   id="SVGID_2_"
   gradientUnits="userSpaceOnUse"
   x1="300.5"
   y1="-403.9907"
   x2="300.5"
   y2="-380.916"
   gradientTransform="matrix(1 0 0 -1 -281.5 -367)">&#10;	<stop
   offset="0"
   style="stop-color:#CBCBCB"
   id="stop4" />&#10;	<stop
   offset="0.4852"
   style="stop-color:#D8D8D8"
   id="stop5" />&#10;	<stop
   offset="1"
   style="stop-color:#E1E1E1"
   id="stop6" />&#10;</linearGradient>&#10;<path
   fill="url(#SVGID_2_)"
   d="M30,17.929c-0.863,0-1.691,0.141-2.471,0.394c-2.105-2.68-5.363-4.407-9.029-4.407  c-3.489,0-6.609,1.566-8.718,4.027c-0.097-0.002-0.191-0.014-0.288-0.014C4.25,17.929,0,21.971,0,26.953  c0,4.984,4.25,9.025,9.494,9.025c1.14,0,2.228-0.201,3.241-0.554c1.697,0.99,3.662,1.566,5.765,1.566  c3.307,0,6.275-1.407,8.374-3.646c0.96,0.408,2.017,0.637,3.126,0.637c4.419,0,8-3.594,8-8.026S34.419,17.929,30,17.929z"
   id="path6"
   style="stroke:#000000;stroke-opacity:1;fill:#ffffff;fill-opacity:1" />&#10;<path
   opacity="0.4"
   fill="#000000"
   enable-background="new    "
   d="M19.064,0c0.92,2.022,1.445,4.26,1.445,6.624  c0,7.624-5.338,13.997-12.499,15.665c2.374,2.312,5.621,3.74,9.207,3.74c7.273,0,13.17-5.859,13.17-13.086  C30.387,6.34,25.459,0.894,19.064,0z"
   id="path7" />&#10;</svg>
