<?xml version="1.0" encoding="UTF-8" standalone="no"?>
<!-- Generator: Adobe Illustrator 16.0.4, SVG Export Plug-In . SVG Version: 6.00 Build 0)  -->

<svg
   version="1.1"
   id="Ebene_1"
   x="0px"
   y="0px"
   width="38px"
   height="37px"
   viewBox="0 0 38 37"
   enable-background="new 0 0 38 37"
   xml:space="preserve"
   sodipodi:docname="57.svg"
   inkscape:version="1.3 (0e150ed6c4, 2023-07-21)"
   xmlns:inkscape="http://www.inkscape.org/namespaces/inkscape"
   xmlns:sodipodi="http://sodipodi.sourceforge.net/DTD/sodipodi-0.dtd"
   xmlns="http://www.w3.org/2000/svg"
   xmlns:svg="http://www.w3.org/2000/svg"><defs
   id="defs11" /><sodipodi:namedview
   id="namedview11"
   pagecolor="#ffffff"
   bordercolor="#000000"
   borderopacity="0.25"
   inkscape:showpageshadow="2"
   inkscape:pageopacity="0.0"
   inkscape:pagecheckerboard="0"
   inkscape:deskcolor="#d1d1d1"
   inkscape:zoom="22.648649"
   inkscape:cx="19.007757"
   inkscape:cy="18.5"
   inkscape:window-width="1920"
   inkscape:window-height="1094"
   inkscape:window-x="-9"
   inkscape:window-y="-9"
   inkscape:window-maximized="1"
   inkscape:current-layer="Ebene_1" />&#10;<path
   fill="#000000"
   d="M19.064,0c0.92,2.022,1.445,4.26,1.445,6.624c0,7.624-5.338,13.997-12.499,15.665  c2.374,2.312,5.621,3.74,9.207,3.74c7.273,0,13.17-5.859,13.17-13.086C30.387,6.34,25.459,0.894,19.064,0z"
   id="path1" />&#10;<linearGradient
   id="SVGID_1_"
   gradientUnits="userSpaceOnUse"
   x1="14.1904"
   y1="9.7314"
   x2="14.1904"
   y2="10.7314"
   gradientTransform="matrix(27.28 0 0 -16.564 -363.7613 186.1619)">&#10;	<stop
   offset="0"
   style="stop-color:#989898"
   id="stop1" />&#10;	<stop
   offset="0.0953"
   style="stop-color:#9D9D9D"
   id="stop2" />&#10;	<stop
   offset="0.6555"
   style="stop-color:#B5B5B5"
   id="stop3" />&#10;	<stop
   offset="1"
   style="stop-color:#BEBEBE"
   id="stop4" />&#10;</linearGradient>&#10;<path
   fill="url(#SVGID_1_)"
   d="M31.256,11.309c-0.621,0-1.214,0.101-1.773,0.282C27.971,9.667,25.632,8.427,23,8.427  c-2.504,0-4.746,1.124-6.258,2.892c-0.07-0.002-0.137-0.01-0.208-0.01c-3.764,0-6.815,2.899-6.815,6.477s3.051,6.478,6.815,6.478  c0.819,0,1.601-0.145,2.328-0.396c1.217,0.711,2.627,1.124,4.138,1.124c2.372,0,4.505-1.011,6.012-2.618  c0.689,0.295,1.447,0.458,2.244,0.458c3.174,0,5.743-2.579,5.743-5.761C36.999,13.887,34.43,11.309,31.256,11.309z"
   id="path4"
   style="fill:#ffffff;fill-opacity:1;stroke:#000000;stroke-opacity:1" />&#10;<linearGradient
   id="SVGID_2_"
   gradientUnits="userSpaceOnUse"
   x1="11.3159"
   y1="16.5801"
   x2="11.3159"
   y2="17.5801"
   gradientTransform="matrix(38 0 0 -23.076 -411 419.5819)">&#10;	<stop
   offset="0"
   style="stop-color:#989898"
   id="stop5" />&#10;	<stop
   offset="0.0953"
   style="stop-color:#9D9D9D"
   id="stop6" />&#10;	<stop
   offset="0.6555"
   style="stop-color:#B5B5B5"
   id="stop7" />&#10;	<stop
   offset="1"
   style="stop-color:#BEBEBE"
   id="stop8" />&#10;</linearGradient>&#10;<path
   fill="url(#SVGID_2_)"
   d="M30,17.929c-0.863,0-1.691,0.141-2.471,0.394c-2.105-2.68-5.363-4.407-9.029-4.407  c-3.489,0-6.609,1.566-8.718,4.027c-0.097-0.002-0.191-0.014-0.288-0.014C4.25,17.929,0,21.971,0,26.953  c0,4.984,4.25,9.025,9.494,9.025c1.14,0,2.228-0.201,3.241-0.553c1.697,0.99,3.662,1.566,5.765,1.566  c3.307,0,6.275-1.407,8.374-3.646c0.96,0.409,2.017,0.637,3.126,0.637c4.419,0,8-3.594,8-8.026S34.419,17.929,30,17.929z"
   id="path8"
   style="stroke:#000000;stroke-opacity:1;fill:#ffffff;fill-opacity:1" />&#10;<path
   opacity="0.2"
   fill="#000000"
   enable-background="new    "
   d="M19.064,0c0.92,2.022,1.445,4.26,1.445,6.624  c0,7.624-5.338,13.997-12.499,15.665c2.374,2.312,5.621,3.74,9.207,3.74c7.273,0,13.17-5.859,13.17-13.086  C30.387,6.34,25.459,0.894,19.064,0z"
   id="path9" />&#10;<path
   fill="#7AC4E9"
   d="M33.889,26.609c0,1.441-1.166,2.611-2.604,2.611s-2.604-1.17-2.604-2.611s1.385-3.101,2.604-4.698  C32.439,23.559,33.889,25.168,33.889,26.609z"
   id="path10"
   style="fill:#ffffff;fill-opacity:1;stroke:#000000;stroke-opacity:1" />&#10;<path
   fill="#000000"
   d="M22.896,27.025l-2.516,1.455l2.516,1.455c0.449,0.258,0.603,0.836,0.344,1.285  c-0.26,0.451-0.834,0.605-1.284,0.346l-2.515-1.455v2.908c0,0.521-0.421,0.942-0.939,0.942c-0.52,0-0.94-0.421-0.94-0.942v-2.908  l-2.514,1.455c-0.45,0.262-1.025,0.105-1.284-0.346c-0.259-0.449-0.106-1.025,0.344-1.285l2.514-1.455l-2.514-1.455  c-0.452-0.26-0.605-0.836-0.344-1.286c0.259-0.45,0.834-0.604,1.284-0.345l2.514,1.455v-2.91c-0.002-0.521,0.42-0.942,0.94-0.941  c0.518,0,0.939,0.421,0.939,0.941v2.91l2.515-1.457c0.45-0.259,1.024-0.104,1.284,0.346C23.5,26.189,23.346,26.766,22.896,27.025z"
   id="path11" />&#10;</svg>
