<?xml version="1.0" encoding="UTF-8" standalone="no"?>
<!-- Generator: Adobe Illustrator 16.0.4, SVG Export Plug-In . SVG Version: 6.00 Build 0)  -->

<svg
   version="1.1"
   id="_x31_8"
   x="0px"
   y="0px"
   width="40px"
   height="40px"
   viewBox="0 0 40 40"
   enable-background="new 0 0 40 40"
   xml:space="preserve"
   sodipodi:docname="18.svg"
   inkscape:version="1.3 (0e150ed6c4, 2023-07-21)"
   xmlns:inkscape="http://www.inkscape.org/namespaces/inkscape"
   xmlns:sodipodi="http://sodipodi.sourceforge.net/DTD/sodipodi-0.dtd"
   xmlns="http://www.w3.org/2000/svg"
   xmlns:svg="http://www.w3.org/2000/svg"><defs
   id="defs7" /><sodipodi:namedview
   id="namedview7"
   pagecolor="#ffffff"
   bordercolor="#000000"
   borderopacity="0.25"
   inkscape:showpageshadow="2"
   inkscape:pageopacity="0.0"
   inkscape:pagecheckerboard="0"
   inkscape:deskcolor="#d1d1d1"
   inkscape:zoom="20.95"
   inkscape:cx="19.976134"
   inkscape:cy="20"
   inkscape:window-width="1920"
   inkscape:window-height="1094"
   inkscape:window-x="-9"
   inkscape:window-y="-9"
   inkscape:window-maximized="1"
   inkscape:current-layer="_x31_8" />&#10;<linearGradient
   id="SVGID_1_"
   gradientUnits="userSpaceOnUse"
   x1="25.3311"
   y1="53.1436"
   x2="25.3311"
   y2="52.1357"
   gradientTransform="matrix(27.28 0 0 16.564 -667.5625 -863.6094)">&#10;	<stop
   offset="0"
   style="stop-color:#888888"
   id="stop1" />&#10;	<stop
   offset="1"
   style="stop-color:#BEBEBE"
   id="stop2" />&#10;</linearGradient>&#10;<path
   fill="url(#SVGID_1_)"
   d="M31.43,2.906c-0.626,0-1.224,0.102-1.788,0.284C28.118,1.25,25.761,0,23.108,0  c-2.524,0-4.785,1.133-6.309,2.916c-0.071-0.002-0.138-0.01-0.209-0.01c-3.795,0-6.87,2.922-6.87,6.529  c0,3.607,3.075,6.531,6.87,6.531c0.825,0,1.613-0.146,2.346-0.399c1.228,0.717,2.648,1.133,4.172,1.133  c2.391,0,4.541-1.019,6.061-2.64c0.694,0.298,1.458,0.462,2.262,0.462c3.2,0,5.79-2.6,5.79-5.807  C37.219,5.504,34.629,2.906,31.43,2.906z"
   id="path2"
   style="fill:#ffffff;fill-opacity:1;stroke:#000000;stroke-opacity:1" />&#10;<linearGradient
   id="SVGID_2_"
   gradientUnits="userSpaceOnUse"
   x1="19.5923"
   y1="39.7422"
   x2="19.5923"
   y2="38.7422"
   gradientTransform="matrix(38 0 0 23.047 -725.5 -887.2656)">&#10;	<stop
   offset="0"
   style="stop-color:#888888"
   id="stop3" />&#10;	<stop
   offset="1"
   style="stop-color:#BEBEBE"
   id="stop4" />&#10;</linearGradient>&#10;<path
   fill="url(#SVGID_2_)"
   d="M30,9.66c-0.863,0-1.691,0.141-2.471,0.394c-2.105-2.678-5.363-4.402-9.029-4.402  c-3.489,0-6.609,1.564-8.718,4.022C9.685,9.672,9.591,9.66,9.494,9.66C4.25,9.66,0,13.696,0,18.673c0,4.979,4.25,9.014,9.494,9.014  c1.14,0,2.228-0.201,3.241-0.552c1.697,0.989,3.662,1.564,5.765,1.564c3.307,0,6.275-1.405,8.374-3.642  c0.96,0.407,2.017,0.635,3.126,0.635c4.419,0,8-3.59,8-8.018C38,13.248,34.419,9.66,30,9.66z"
   id="path4"
   style="stroke:#000000;stroke-opacity:1;fill:#ffffff;fill-opacity:1" />&#10;<path
   fill="#7AC4E9"
   d="M31.284,35.039c-1.438,0-2.604-1.169-2.604-2.611c0-1.439,1.385-3.1,2.604-4.696  c1.155,1.647,2.604,3.257,2.604,4.696C33.889,33.87,32.723,35.039,31.284,35.039z M18.948,40c-1.813,0-3.284-1.474-3.284-3.291  c0-1.818,1.745-3.908,3.284-5.923c1.456,2.078,3.282,4.104,3.282,5.923C22.23,38.526,20.762,40,18.948,40z"
   id="path5"
   style="fill:#f7fbfe;fill-opacity:1;stroke:#000000;stroke-opacity:1" />&#10;<path
   fill="#000000"
   d="M23.248,20.062l-2.516,1.455l2.516,1.455c0.449,0.26,0.602,0.836,0.344,1.286  c-0.26,0.45-0.834,0.604-1.285,0.345l-2.514-1.455v2.91c0,0.521-0.422,0.94-0.94,0.94c-0.52,0-0.94-0.421-0.94-0.94v-2.91  l-2.514,1.455c-0.45,0.263-1.025,0.105-1.284-0.345c-0.259-0.45-0.106-1.026,0.344-1.286l2.514-1.455l-2.514-1.455  c-0.452-0.258-0.605-0.836-0.344-1.285c0.259-0.45,0.834-0.604,1.284-0.346l2.514,1.454v-2.907c-0.002-0.521,0.42-0.943,0.94-0.942  c0.518,0,0.94,0.421,0.94,0.942v2.907l2.514-1.454c0.451-0.261,1.025-0.104,1.285,0.344C23.852,19.227,23.697,19.803,23.248,20.062z  "
   id="path6" />&#10;<path
   fill="#000000"
   d="M10.724,20.054L8.721,20.48l1.371,1.525c0.246,0.273,0.223,0.693-0.049,0.939  c-0.273,0.246-0.692,0.225-0.937-0.049L7.735,21.37l-0.633,1.952c-0.113,0.351-0.487,0.541-0.836,0.428  c-0.348-0.114-0.539-0.488-0.424-0.838l0.633-1.953L4.47,21.385c-0.359,0.079-0.71-0.15-0.788-0.51  c-0.075-0.361,0.154-0.713,0.511-0.789l2.005-0.427l-1.371-1.526c-0.245-0.271-0.224-0.693,0.049-0.938  c0.272-0.244,0.691-0.223,0.936,0.049l1.372,1.525l0.633-1.951c0.113-0.352,0.487-0.541,0.835-0.428  c0.35,0.113,0.541,0.487,0.426,0.838l-0.633,1.953l2.004-0.427c0.358-0.078,0.71,0.153,0.787,0.511  C11.313,19.626,11.085,19.979,10.724,20.054z"
   id="path7" />&#10;</svg>
