<?xml version="1.0" encoding="UTF-8" standalone="no"?>
<!-- Generator: Adobe Illustrator 16.0.4, SVG Export Plug-In . SVG Version: 6.00 Build 0)  -->

<svg
   version="1.1"
   id="Ebene_1"
   x="0px"
   y="0px"
   width="38px"
   height="39px"
   viewBox="0 0 38 39"
   enable-background="new 0 0 38 39"
   xml:space="preserve"
   sodipodi:docname="73.svg"
   inkscape:version="1.3 (0e150ed6c4, 2023-07-21)"
   xmlns:inkscape="http://www.inkscape.org/namespaces/inkscape"
   xmlns:sodipodi="http://sodipodi.sourceforge.net/DTD/sodipodi-0.dtd"
   xmlns="http://www.w3.org/2000/svg"
   xmlns:svg="http://www.w3.org/2000/svg"><defs
   id="defs10" /><sodipodi:namedview
   id="namedview10"
   pagecolor="#ffffff"
   bordercolor="#000000"
   borderopacity="0.25"
   inkscape:showpageshadow="2"
   inkscape:pageopacity="0.0"
   inkscape:pagecheckerboard="0"
   inkscape:deskcolor="#d1d1d1"
   inkscape:zoom="21.487179"
   inkscape:cx="19.011337"
   inkscape:cy="19.5"
   inkscape:window-width="1920"
   inkscape:window-height="1094"
   inkscape:window-x="-9"
   inkscape:window-y="-9"
   inkscape:window-maximized="1"
   inkscape:current-layer="Ebene_1" />&#10;<linearGradient
   id="SVGID_1_"
   gradientUnits="userSpaceOnUse"
   x1="14.21"
   y1="10.8779"
   x2="14.21"
   y2="11.8779"
   gradientTransform="matrix(27.228 0 0 -16.624 -363.5168 197.464)">&#10;	<stop
   offset="0"
   style="stop-color:#989898"
   id="stop1" />&#10;	<stop
   offset="0.0953"
   style="stop-color:#9D9D9D"
   id="stop2" />&#10;	<stop
   offset="0.6555"
   style="stop-color:#B5B5B5"
   id="stop3" />&#10;	<stop
   offset="1"
   style="stop-color:#BEBEBE"
   id="stop4" />&#10;</linearGradient>&#10;<path
   fill="url(#SVGID_1_)"
   d="M31.281,2.892c-0.619,0-1.211,0.101-1.77,0.283C28.003,1.244,25.668,0,23.041,0  c-2.499,0-4.736,1.128-6.246,2.901c-0.069-0.002-0.137-0.009-0.207-0.009c-3.757,0-6.802,2.91-6.802,6.501  c0,3.591,3.045,6.502,6.802,6.502c0.817,0,1.598-0.145,2.323-0.398c1.215,0.713,2.622,1.127,4.13,1.127  c2.368,0,4.497-1.013,6.001-2.627c0.687,0.296,1.444,0.459,2.239,0.459c3.168,0,5.732-2.588,5.732-5.782  C37.014,5.48,34.449,2.892,31.281,2.892z"
   id="path4"
   style="stroke:#000000;stroke-opacity:1;fill:#ffffff;fill-opacity:1" />&#10;<linearGradient
   id="SVGID_2_"
   gradientUnits="userSpaceOnUse"
   x1="11.3159"
   y1="17.7163"
   x2="11.3159"
   y2="18.7163"
   gradientTransform="matrix(38 0 0 -23.2 -411 439.8406)">&#10;	<stop
   offset="0"
   style="stop-color:#989898"
   id="stop5" />&#10;	<stop
   offset="0.0953"
   style="stop-color:#9D9D9D"
   id="stop6" />&#10;	<stop
   offset="0.6555"
   style="stop-color:#B5B5B5"
   id="stop7" />&#10;	<stop
   offset="1"
   style="stop-color:#BEBEBE"
   id="stop8" />&#10;</linearGradient>&#10;<path
   fill="url(#SVGID_2_)"
   d="M30,9.673c-0.863,0-1.691,0.142-2.471,0.396c-2.105-2.695-5.363-4.431-9.029-4.431  c-3.489,0-6.609,1.574-8.718,4.049C9.685,9.685,9.591,9.673,9.494,9.673C4.25,9.673,0,13.735,0,18.745  c0,5.011,4.25,9.073,9.494,9.073c1.14,0,2.228-0.201,3.241-0.555c1.697,0.995,3.662,1.574,5.765,1.574  c3.307,0,6.275-1.414,8.374-3.666c0.96,0.411,2.017,0.641,3.126,0.641c4.419,0,8-3.613,8-8.07C38,13.286,34.419,9.673,30,9.673z"
   id="path8"
   style="fill:#ffffff;fill-opacity:1;stroke:#000000;stroke-opacity:1" />&#10;<path
   fill="#7AC4E9"
   d="M31.284,34.007c-1.438,0-2.604-1.173-2.604-2.618s1.383-3.109,2.604-4.713  c1.155,1.653,2.604,3.268,2.604,4.713S32.723,34.007,31.284,34.007z M19.284,38.982c-1.813,0-3.284-1.478-3.284-3.301  c0-1.822,1.745-3.918,3.284-5.94c1.456,2.084,3.282,4.118,3.282,5.94C22.566,37.505,21.098,38.982,19.284,38.982z"
   id="path9"
   style="fill:#ffffff;fill-opacity:1;stroke:#000000;stroke-opacity:1" />&#10;<path
   fill="#FFF57A"
   d="M21.411,0.932l-5.179,8.016h3.759L8.463,23.311l4.916-11.356h-6.37l5.7-11.022H21.411z"
   id="path10"
   style="stroke:#000000;stroke-opacity:1;stroke-linejoin:round;fill:#ffffff;fill-opacity:1" />&#10;</svg>
