<?xml version="1.0" encoding="utf-8"?><!DOCTYPE svg PUBLIC "-//W3C//DTD SVG 1.1//EN" "http://www.w3.org/Graphics/SVG/1.1/DTD/svg11.dtd"><svg version="1.1" baseProfile="full" xmlns="http://www.w3.org/2000/svg" xmlns:xlink="http://www.w3.org/1999/xlink" xmlns:ev="http://www.w3.org/2001/xml-events"   height="32px"   width="38px" ><defs><linearGradient id="PSgrad_0" x1="0%" x2="0%" y1="100%" y2="0%">  <stop offset="0%" stop-color="rgb(0,0,0)" stop-opacity="0.1" />  <stop offset="100%" stop-color="rgb(255,255,255)" stop-opacity="0.1" /></linearGradient></defs><path fill="#000000" d="M20.065,5.132 C20.985,7.154 21.51,9.392 21.51,11.756 C21.51,19.38 16.172,25.753 9.01,27.422 C11.385,29.733 14.632,31.161 18.218,31.161 C25.49,31.161 31.386,25.302 31.386,18.075 C31.386,11.472 26.46,6.026 20.065,5.132 Z "/><path fill="rgb( 223, 223, 223 )" d="M36.885,10.213 C36.885,10.213 1.116,10.213 1.116,10.213 C0.499,10.215 0,9.714 0.001,9.098 C0.001,8.484 0.5,7.985 1.116,7.984 C1.116,7.984 36.885,7.984 36.885,7.984 C37.501,7.984 38,8.484 38,9.098 C38,9.715 37.501,10.213 36.885,10.213 ZM36.885,6.214 C36.885,6.214 1.116,6.214 1.116,6.214 C0.499,6.216 0,5.716 0.001,5.1 C0.001,4.485 0.5,3.987 1.116,3.986 C1.116,3.986 36.885,3.986 36.885,3.986 C37.501,3.986 38,4.485 38,5.1 C38,5.717 37.501,6.214 36.885,6.214 ZM36.885,2.228 C36.885,2.228 1.116,2.228 1.116,2.228 C0.499,2.23 0,1.73 0.001,1.114 C0.001,0.499 0.5,0.001 1.116,0 C1.116,0 36.885,0 36.885,0 C37.501,0 38,0.499 38,1.114 C38,1.731 37.501,2.228 36.885,2.228 ZM1.116,11.991 C1.116,11.991 36.885,11.991 36.885,11.991 C37.501,11.991 38,12.49 38,13.105 C38,13.721 37.501,14.219 36.885,14.219 C36.885,14.219 1.116,14.219 1.116,14.219 C0.499,14.221 0,13.721 0.001,13.105 C0.001,12.49 0.5,11.992 1.116,11.991 Z "/><path fill="url(#PSgrad_0)" d="M36.885,10.213 C36.885,10.213 1.116,10.213 1.116,10.213 C0.499,10.215 0,9.714 0.001,9.098 C0.001,8.484 0.5,7.985 1.116,7.984 C1.116,7.984 36.885,7.984 36.885,7.984 C37.501,7.984 38,8.484 38,9.098 C38,9.715 37.501,10.213 36.885,10.213 ZM36.885,6.214 C36.885,6.214 1.116,6.214 1.116,6.214 C0.499,6.216 0,5.716 0.001,5.1 C0.001,4.485 0.5,3.987 1.116,3.986 C1.116,3.986 36.885,3.986 36.885,3.986 C37.501,3.986 38,4.485 38,5.1 C38,5.717 37.501,6.214 36.885,6.214 ZM36.885,2.228 C36.885,2.228 1.116,2.228 1.116,2.228 C0.499,2.23 0,1.73 0.001,1.114 C0.001,0.499 0.5,0.001 1.116,0 C1.116,0 36.885,0 36.885,0 C37.501,0 38,0.499 38,1.114 C38,1.731 37.501,2.228 36.885,2.228 ZM1.116,11.991 C1.116,11.991 36.885,11.991 36.885,11.991 C37.501,11.991 38,12.49 38,13.105 C38,13.721 37.501,14.219 36.885,14.219 C36.885,14.219 1.116,14.219 1.116,14.219 C0.499,14.221 0,13.721 0.001,13.105 C0.001,12.49 0.5,11.992 1.116,11.991 Z "/></svg>