<?xml version="1.0" encoding="utf-8"?><!DOCTYPE svg PUBLIC "-//W3C//DTD SVG 1.1//EN" "http://www.w3.org/Graphics/SVG/1.1/DTD/svg11.dtd"><svg version="1.1" baseProfile="full" xmlns="http://www.w3.org/2000/svg" xmlns:xlink="http://www.w3.org/1999/xlink" xmlns:ev="http://www.w3.org/2001/xml-events"   height="32px"   width="38px" ><defs><linearGradient id="PSgrad_0" x1="0%" x2="0%" y1="100%" y2="0%">  <stop offset="0%" stop-color="rgb(0,0,0)" stop-opacity="0.1" />  <stop offset="100%" stop-color="rgb(255,255,255)" stop-opacity="0.1" /></linearGradient></defs><path fill="#000000" d="M20.065,0 C20.985,2.022 21.51,4.26 21.51,6.624 C21.51,14.248 16.172,20.621 9.01,22.29 C11.385,24.601 14.632,26.029 18.218,26.029 C25.49,26.029 31.386,20.17 31.386,12.943 C31.386,6.34 26.46,0.894 20.065,0 Z "/><path fill="rgb( 223, 223, 223 )" d="M36.885,27.081 C36.885,27.081 1.116,27.081 1.116,27.081 C0.499,27.083 0,26.582 0.001,25.966 C0.001,25.352 0.5,24.853 1.116,24.852 C1.116,24.852 36.885,24.852 36.885,24.852 C37.501,24.852 38,25.352 38,25.966 C38,26.583 37.501,27.081 36.885,27.081 ZM36.885,23.082 C36.885,23.082 1.116,23.082 1.116,23.082 C0.499,23.084 0,22.584 0.001,21.968 C0.001,21.353 0.5,20.855 1.116,20.854 C1.116,20.854 36.885,20.854 36.885,20.854 C37.501,20.854 38,21.353 38,21.968 C38,22.585 37.501,23.082 36.885,23.082 ZM36.885,19.096 C36.885,19.096 1.116,19.096 1.116,19.096 C0.499,19.098 0,18.598 0.001,17.982 C0.001,17.367 0.5,16.869 1.116,16.868 C1.116,16.868 36.885,16.868 36.885,16.868 C37.501,16.868 38,17.367 38,17.982 C38,18.599 37.501,19.096 36.885,19.096 ZM1.116,28.859 C1.116,28.859 36.885,28.859 36.885,28.859 C37.501,28.859 38,29.358 38,29.973 C38,30.589 37.501,31.087 36.885,31.087 C36.885,31.087 1.116,31.087 1.116,31.087 C0.499,31.089 0,30.589 0.001,29.973 C0.001,29.358 0.5,28.86 1.116,28.859 Z "/><path fill="url(#PSgrad_0)" d="M36.885,27.081 C36.885,27.081 1.116,27.081 1.116,27.081 C0.499,27.083 0,26.582 0.001,25.966 C0.001,25.352 0.5,24.853 1.116,24.852 C1.116,24.852 36.885,24.852 36.885,24.852 C37.501,24.852 38,25.352 38,25.966 C38,26.583 37.501,27.081 36.885,27.081 ZM36.885,23.082 C36.885,23.082 1.116,23.082 1.116,23.082 C0.499,23.084 0,22.584 0.001,21.968 C0.001,21.353 0.5,20.855 1.116,20.854 C1.116,20.854 36.885,20.854 36.885,20.854 C37.501,20.854 38,21.353 38,21.968 C38,22.585 37.501,23.082 36.885,23.082 ZM36.885,19.096 C36.885,19.096 1.116,19.096 1.116,19.096 C0.499,19.098 0,18.598 0.001,17.982 C0.001,17.367 0.5,16.869 1.116,16.868 C1.116,16.868 36.885,16.868 36.885,16.868 C37.501,16.868 38,17.367 38,17.982 C38,18.599 37.501,19.096 36.885,19.096 ZM1.116,28.859 C1.116,28.859 36.885,28.859 36.885,28.859 C37.501,28.859 38,29.358 38,29.973 C38,30.589 37.501,31.087 36.885,31.087 C36.885,31.087 1.116,31.087 1.116,31.087 C0.499,31.089 0,30.589 0.001,29.973 C0.001,29.358 0.5,28.86 1.116,28.859 Z "/></svg>